<?xml version="1.0" standalone="no"?>
<!DOCTYPE svg PUBLIC "-//W3C//DTD SVG 20010904//EN"
 "http://www.w3.org/TR/2001/REC-SVG-20010904/DTD/svg10.dtd">
<svg version="1.0" xmlns="http://www.w3.org/2000/svg"
 width="260.000000pt" height="260.000000pt" viewBox="0 0 260.000000 260.000000"
 preserveAspectRatio="xMidYMid meet">
<metadata>
Created by potrace 1.11, written by Peter Selinger 2001-2013
</metadata>
<g transform="translate(0.000000,260.000000) scale(0.100000,-0.100000)"
fill="#000000" stroke="none">
<path d="M30 1271 l0 -599 58 -4 c31 -2 60 0 63 5 4 5 10 4 13 -2 4 -6 12 -11
19 -11 6 0 2 7 -10 15 -21 15 -36 72 -21 81 5 3 5 10 1 17 -4 6 -7 21 -8 34
-1 20 4 22 36 19 27 -2 36 0 32 10 -5 14 -33 27 -41 19 -3 -3 0 -5 6 -5 7 0
12 -4 12 -10 0 -15 -16 -12 -35 6 -11 11 -13 20 -5 28 5 7 7 16 3 20 -13 13
-8 51 7 63 21 18 24 16 39 -18 7 -16 16 -28 19 -24 3 3 0 11 -6 17 -15 15 -16
32 -2 23 6 -3 10 -4 10 -1 0 3 -9 10 -21 16 -15 8 -24 8 -34 0 -16 -14 -23 1
-17 42 5 35 20 38 17 3 -2 -14 1 -25 6 -25 5 0 8 10 6 23 -1 17 3 22 19 21 15
0 21 5 20 20 -1 12 1 23 5 26 3 3 -9 15 -27 27 -19 12 -31 16 -28 8 3 -7 0
-16 -6 -20 -13 -8 5 -35 24 -35 6 0 3 5 -7 11 -17 10 -15 29 4 29 6 0 7 -4 4
-10 -3 -5 0 -7 7 -5 8 3 14 -2 15 -14 2 -20 -27 -34 -46 -21 -7 4 -13 25 -14
48 -1 22 1 38 5 36 3 -2 9 4 13 15 3 11 13 25 23 32 9 7 14 10 11 6 -4 -5 9
-25 30 -46 20 -20 114 -127 210 -236 96 -110 182 -208 191 -218 18 -19 99 -30
133 -18 14 5 12 11 -13 38 -16 17 -53 60 -82 95 -56 67 -102 120 -130 150 -10
10 -16 18 -13 18 2 0 -6 10 -18 23 -12 12 -42 47 -67 76 -25 30 -58 67 -73 83
-16 15 -26 28 -22 28 3 0 -10 14 -30 31 -68 60 -78 41 167 344 280 347 258
315 219 315 -17 0 -31 -3 -31 -8 0 -4 -10 -18 -23 -32 -12 -14 -53 -63 -91
-110 -37 -47 -129 -160 -203 -252 -74 -93 -141 -168 -149 -168 -8 0 -14 -5
-14 -11 0 -5 6 -7 13 -3 7 4 9 3 4 -2 -5 -5 -14 -9 -20 -9 -7 -1 -11 -6 -9
-13 1 -7 -4 -12 -11 -12 -24 0 -27 13 -6 28 11 8 18 20 15 28 -4 11 1 13 21
10 19 -4 23 -2 15 6 -7 7 -7 19 -2 34 7 16 6 23 -2 21 -6 -1 -13 4 -16 12 -3
10 0 11 9 5 12 -6 12 -5 0 9 -8 10 -11 21 -7 24 4 4 11 1 16 -7 6 -8 10 -11
10 -6 0 5 -7 18 -16 28 -14 15 -15 20 -4 33 11 13 11 18 0 28 -10 10 -12 9 -7
-5 3 -10 2 -20 -4 -24 -6 -3 -8 -13 -4 -21 3 -9 -2 -24 -12 -35 -16 -18 -16
-19 3 -12 18 7 18 6 3 -12 -9 -10 -14 -25 -12 -31 3 -7 -1 -13 -8 -13 -7 0
-10 -2 -7 -5 3 -3 13 -3 22 1 14 5 14 9 4 22 -11 13 -10 14 2 10 24 -8 23 -36
-1 -48 -17 -10 -23 -9 -30 1 -4 7 -4 18 1 25 6 6 7 14 3 17 -12 13 -9 57 4 57
7 0 13 5 13 11 0 5 -4 8 -9 5 -5 -4 -11 -1 -13 6 -6 16 3 68 11 68 10 0 8 -31
-3 -48 -4 -6 -2 -12 3 -12 6 0 12 6 12 13 1 6 2 19 3 27 0 9 10 15 23 14 18 0
21 4 17 30 -2 16 -9 34 -15 40 -12 11 -10 2 8 -40 5 -12 -25 -23 -44 -17 -14
5 -18 73 -5 73 4 0 8 -12 8 -27 -1 -15 5 -28 14 -30 9 -3 11 -1 5 4 -20 15
-12 48 11 47 17 0 21 5 19 24 -2 23 -20 42 -40 42 -5 0 1 -7 13 -16 27 -19 28
-30 3 -37 -28 -7 -38 4 -39 44 -1 21 -3 42 -4 49 -2 7 4 15 12 17 13 4 13 3 0
-6 -12 -9 -11 -11 9 -9 13 2 26 -3 28 -10 3 -7 -1 -10 -10 -6 -8 3 -18 0 -22
-7 -5 -7 -3 -10 6 -7 8 3 22 1 31 -4 14 -7 16 -5 11 9 -3 10 -11 24 -17 32 -9
12 -8 13 4 9 11 -4 16 1 18 15 1 17 -1 18 -8 7 -5 -8 -12 -11 -16 -7 -4 3 -1
14 7 24 12 14 12 15 0 9 -9 -6 -12 -5 -9 5 3 8 11 13 17 11 7 -1 10 2 6 8 -12
20 -35 -10 -31 -41 2 -16 1 -29 -3 -29 -18 1 -35 21 -36 44 -1 27 10 36 17 14
3 -7 7 -5 11 6 4 9 3 15 -2 12 -15 -9 -29 17 -26 47 3 27 3 27 -56 27 l-59 0
0 -599z m140 30 c0 -17 -18 -21 -24 -6 -3 9 0 15 9 15 8 0 15 -4 15 -9z m0
-65 c0 -2 -7 -7 -16 -10 -8 -3 -12 -2 -9 4 6 10 25 14 25 6z"/>
<path d="M842 1270 l0 -600 40 0 c22 0 37 -4 33 -9 -3 -5 -1 -12 5 -16 6 -4 7
-11 4 -17 -4 -7 -2 -8 4 -4 6 4 23 -1 37 -10 24 -16 25 -16 18 1 -4 13 -3 16
5 11 7 -4 20 -2 29 3 14 8 15 10 3 11 -13 0 -13 1 0 10 8 5 10 10 4 10 -6 0
-23 -9 -36 -20 -14 -10 -28 -17 -31 -13 -4 3 4 14 16 23 18 15 48 18 168 21
144 4 146 4 221 41 73 37 147 101 188 163 l19 29 11 -26 c9 -18 19 -25 41 -25
16 0 29 4 29 9 0 5 -4 7 -9 4 -5 -3 -8 6 -8 20 0 23 1 24 17 9 14 -12 20 -13
26 -4 4 8 3 10 -4 5 -7 -4 -12 -3 -12 3 0 5 6 14 14 18 12 7 12 10 -1 22 -12
11 -14 10 -11 -4 2 -10 -2 -20 -9 -22 -7 -2 -10 3 -8 14 2 10 4 24 4 30 1 13
34 13 46 1 4 -3 6 -69 6 -147 l0 -141 54 0 c33 0 55 -5 58 -12 3 -7 5 -2 5 12
0 14 3 33 7 43 4 9 3 17 -1 17 -11 0 -9 117 2 144 5 14 4 17 -5 11 -10 -6 -11
-3 -2 13 14 26 14 35 0 26 -8 -5 -8 -1 0 14 14 27 14 35 -1 26 -7 -5 -8 -3 -3
6 8 13 8 59 1 122 -2 18 1 25 9 21 7 -2 16 0 20 6 3 6 12 11 18 11 7 -1 -1
-12 -18 -26 -16 -13 -23 -22 -14 -19 9 3 22 -2 30 -11 12 -15 12 -16 -9 -10
-14 5 -22 3 -22 -4 0 -6 5 -8 10 -5 14 9 13 -8 -2 -23 -8 -8 -8 -15 2 -27 9
-11 9 -15 1 -15 -7 0 -9 -5 -5 -11 4 -8 9 -7 15 2 4 7 5 17 2 23 -4 5 1 7 10
3 12 -4 14 -2 10 10 -5 12 -3 14 7 8 9 -6 11 -4 6 4 -6 9 -13 8 -27 -5 -10 -9
-19 -12 -19 -6 0 6 11 19 23 29 l24 17 -21 19 -21 18 25 -6 c14 -4 20 -3 15 2
-14 10 -17 56 -4 47 12 -7 7 19 -5 28 -6 4 -4 14 5 24 12 15 12 17 0 9 -11 -6
-13 -4 -8 8 4 12 2 14 -10 10 -11 -4 -14 -2 -9 5 5 8 2 10 -8 6 -9 -3 -16 -10
-16 -16 0 -5 4 -7 9 -3 12 7 24 -12 27 -40 2 -27 -24 -55 -44 -48 -12 5 -11 8
6 14 12 5 22 14 22 21 0 10 -2 10 -9 -1 -15 -23 -33 -3 -20 22 9 16 9 22 1 25
-8 2 -9 9 -2 21 7 15 23 17 97 17 81 -1 88 -3 88 -21 0 -11 -6 -19 -12 -18 -7
2 -13 -2 -13 -8 0 -6 7 -9 15 -6 8 4 17 2 20 -4 4 -5 10 -7 15 -4 5 3 92 -112
195 -255 141 -198 191 -260 208 -261 12 -1 32 -2 45 -2 25 -1 25 -2 13 -26 -7
-13 -5 -17 9 -17 13 0 16 4 9 12 -7 8 -2 12 16 12 20 0 23 -3 14 -14 -15 -19
-1 -18 17 1 9 9 11 15 4 15 -6 0 -9 4 -6 8 3 5 -1 9 -9 9 -8 0 -15 -4 -15 -9
0 -5 -5 -6 -11 -2 -8 5 -6 10 5 16 15 9 15 11 -2 26 -10 9 -13 15 -7 12 6 -3
-1 6 -15 19 -14 13 -18 20 -10 16 8 -4 4 3 -10 15 -14 12 -18 19 -10 15 8 -4
2 4 -13 18 -19 17 -24 27 -15 30 9 4 7 6 -4 6 -9 1 -20 10 -23 21 -3 11 -11
20 -17 20 -6 0 -9 2 -6 5 3 3 -8 20 -23 36 -16 17 -29 37 -29 44 0 7 -7 15
-15 19 -8 3 -15 14 -15 25 0 12 -11 28 -24 36 -26 17 -45 51 -23 40 6 -3 2 2
-10 11 -13 9 -23 23 -23 30 0 8 -7 14 -15 14 -8 0 -12 6 -9 14 3 8 0 17 -7 22
-8 5 -10 3 -4 -6 5 -9 4 -11 -4 -6 -6 4 -9 11 -6 16 3 4 -2 10 -10 14 -9 3
-12 12 -8 22 4 11 2 15 -4 11 -6 -4 -18 2 -27 12 -16 18 -15 19 31 26 61 9
155 58 193 102 17 19 31 31 31 28 2 -7 2 -42 0 -56 0 -5 -6 -7 -11 -4 -6 4 -7
11 -4 17 4 7 2 8 -5 4 -9 -6 -9 -11 -1 -21 8 -10 6 -17 -11 -29 -12 -8 -27
-12 -32 -9 -6 3 -7 1 -3 -5 6 -11 -6 -16 -26 -13 -11 1 -10 -4 4 -34 11 -25
28 -34 28 -14 0 5 5 7 11 3 7 -4 7 2 -1 17 -11 19 -10 24 6 36 24 18 29 17 31
-8 2 -17 -1 -18 -13 -9 -8 8 -14 8 -14 2 0 -17 28 -22 40 -6 7 8 8 14 3 14 -5
0 -9 10 -10 23 l-2 22 17 -21 18 -21 19 26 c11 14 19 29 17 34 -1 4 3 7 9 7 7
0 8 5 3 13 -14 18 -11 50 5 55 9 3 11 0 7 -9 -4 -8 2 -3 14 10 11 13 19 30 16
37 -3 7 -1 16 5 19 12 8 2 25 -14 25 -9 0 -9 -2 0 -8 9 -6 6 -11 -8 -20 -19
-12 -20 -11 -14 7 4 13 2 21 -5 21 -6 0 -9 -4 -6 -9 3 -5 -1 -14 -9 -21 -8 -7
-12 -16 -9 -21 3 -5 0 -9 -5 -9 -6 0 -11 9 -11 20 0 11 4 20 8 20 15 0 11 153
-4 189 -13 31 -13 32 3 20 15 -13 15 -12 3 8 -8 12 -17 20 -20 18 -3 -2 -16
12 -29 31 -31 45 -104 98 -164 118 -39 13 -93 16 -286 16 l-239 0 -2 -222 c-2
-315 -2 -322 -14 -330 -8 -6 -8 -8 0 -8 6 0 11 -26 12 -65 1 -49 -2 -64 -11
-58 -9 5 -9 4 0 -8 7 -9 11 -51 11 -109 l-1 -96 -29 1 c-19 0 -27 4 -23 13 3
8 5 16 5 18 0 2 5 4 11 4 5 0 7 -4 4 -10 -3 -5 -1 -10 4 -10 17 0 13 11 -11
37 -12 13 -16 23 -10 23 7 0 12 5 12 11 0 5 -4 7 -10 4 -11 -7 -2 23 12 41 4
6 6 18 2 27 -3 8 -1 18 4 21 5 3 7 18 4 32 -3 19 -1 25 7 20 6 -4 11 -2 11 3
0 6 -6 11 -12 11 -9 0 -8 4 2 10 8 5 10 10 5 10 -13 0 -13 100 0 100 5 0 3 5
-5 10 -13 8 -13 13 -2 31 12 19 12 21 -1 16 -12 -4 -15 1 -12 24 2 16 1 29 -4
29 -13 0 -17 57 -6 85 7 19 7 19 -7 1 -14 -18 -15 -18 -21 3 -3 11 -1 19 4 15
5 -3 9 0 9 5 0 6 -7 11 -15 11 -8 0 -15 9 -15 20 0 11 -4 20 -10 20 -5 0 -10
5 -10 11 0 5 5 7 12 3 7 -5 8 -3 4 5 -5 7 -10 10 -13 7 -3 -3 -22 16 -42 42
-47 58 -97 103 -155 137 -79 46 -133 55 -353 55 l-201 0 0 -600z m397 548 c38
-7 50 -13 40 -19 -10 -6 -6 -9 15 -9 23 0 26 -3 17 -14 -9 -11 -9 -16 0 -22 7
-4 9 -3 6 3 -4 6 -1 13 7 16 9 4 37 -18 71 -54 65 -68 127 -190 148 -291 46
-218 -15 -462 -150 -609 -78 -84 -121 -101 -254 -105 -60 -2 -109 1 -109 6 0
4 -7 10 -14 13 -10 4 -13 1 -10 -7 3 -8 -3 -12 -18 -11 -35 3 -31 39 4 40 14
0 30 4 35 9 4 5 3 6 -4 3 -18 -11 -22 15 -6 46 7 15 12 27 11 28 -42 11 -77
-3 -49 -21 9 -5 8 -10 -3 -20 -14 -11 -15 -8 -12 19 2 17 -1 31 -7 31 -22 0 6
14 31 16 15 1 30 2 35 3 12 2 8 19 -7 24 -9 4 -13 1 -10 -6 2 -7 -4 -13 -15
-14 -19 -2 -36 21 -26 37 2 4 16 6 30 5 14 -2 28 2 32 7 3 6 1 8 -4 5 -17 -11
-22 17 -8 43 9 18 10 29 3 37 -7 9 -7 17 0 26 7 8 6 19 -3 37 -14 27 -9 54 9
43 6 -4 5 1 -3 11 -11 13 -11 20 -3 28 9 9 7 17 -6 32 -16 18 -16 19 1 13 11
-4 16 -3 12 3 -3 6 -12 10 -20 10 -8 0 -13 9 -12 20 1 12 7 18 14 16 7 -3 10
1 7 8 -3 8 -1 17 5 21 8 4 7 15 -3 33 -15 30 -11 56 7 45 7 -4 6 1 -2 11 -11
13 -11 20 -3 28 9 9 7 17 -6 32 -16 18 -16 19 1 13 11 -4 16 -3 12 3 -3 6 -12
10 -20 10 -8 0 -13 9 -12 20 1 12 7 18 14 16 7 -3 10 1 7 8 -3 8 -1 17 5 21 8
4 6 15 -4 34 -12 25 -12 31 1 50 8 11 11 21 6 21 -5 0 -14 -11 -20 -25 -6 -14
-15 -25 -20 -25 -5 0 -9 -13 -9 -29 l0 -29 19 21 c18 21 18 21 16 2 -2 -11 -7
-23 -11 -26 -18 -13 -16 -57 3 -82 18 -23 19 -26 3 -38 -15 -12 -16 -12 -10 3
3 9 -1 22 -9 28 -10 9 -14 9 -14 1 0 -6 5 -11 12 -11 9 0 9 -3 0 -12 -10 -10
-8 -15 9 -24 21 -11 21 -12 3 -30 -10 -11 -20 -31 -20 -46 l-2 -28 19 23 c19
21 19 21 17 2 -2 -11 -7 -23 -11 -26 -18 -13 -16 -57 3 -82 18 -23 19 -26 3
-38 -15 -12 -16 -12 -10 3 3 9 -1 22 -9 28 -10 9 -14 9 -14 1 0 -6 5 -11 12
-11 9 0 9 -3 0 -12 -10 -10 -8 -15 9 -24 21 -11 21 -12 3 -30 -10 -11 -20 -31
-20 -46 l-2 -28 18 23 19 22 -2 -22 c-1 -13 -4 -23 -7 -23 -3 0 -11 -10 -19
-21 -9 -16 -10 -24 -1 -29 8 -5 7 -10 -4 -19 -12 -10 -14 -4 -12 43 1 31 -1
56 -6 56 -5 0 -5 8 1 17 6 11 6 24 0 35 -5 10 -6 18 -1 18 10 0 9 30 -2 48 -4
6 -3 12 2 12 5 0 10 11 10 25 0 14 -6 25 -12 25 -8 0 -8 3 0 8 12 8 14 52 1
52 -4 0 -4 8 2 17 6 11 6 24 0 35 -5 10 -6 18 -1 18 10 0 9 30 -2 48 -4 6 -3
12 2 12 5 0 10 11 10 25 0 14 -6 25 -12 25 -8 0 -8 3 0 8 12 8 14 52 2 52 -5
0 -4 8 1 18 5 10 6 24 1 32 -4 7 -4 24 1 37 6 16 5 23 -3 23 -23 0 4 14 30 16
15 1 30 2 35 3 12 2 8 19 -7 24 -9 4 -13 1 -10 -6 2 -7 -4 -13 -16 -14 -11 -1
-21 4 -22 10 0 7 -2 17 -2 22 -1 6 -5 16 -10 24 -6 10 -5 12 3 7 8 -5 10 1 6
23 -4 23 -2 29 9 25 8 -3 17 0 22 7 4 7 3 10 -4 6 -5 -4 -17 -4 -26 -1 -12 5
-14 10 -6 19 13 16 198 18 279 3z m934 -3 c21 -9 23 -30 2 -22 -8 4 -17 2 -20
-3 -4 -6 -11 -10 -16 -10 -6 0 -8 3 -6 8 3 4 -6 8 -20 9 l-25 1 28 -18 c24
-14 30 -15 37 -3 5 7 13 11 18 7 5 -3 16 -1 23 5 10 9 16 7 21 -6 5 -10 7 -22
6 -26 -1 -5 3 -6 8 -2 15 8 50 -24 74 -70 31 -57 31 -183 0 -241 -33 -61 -71
-102 -116 -126 -36 -18 -58 -20 -172 -20 -210 2 -195 -2 -196 51 0 25 -2 56
-3 68 -2 13 2 19 10 16 6 -2 15 0 19 6 3 6 12 11 18 11 7 -1 -1 -12 -18 -26
-21 -17 -24 -23 -10 -18 16 6 18 5 8 -7 -7 -7 -13 -18 -13 -23 0 -6 5 -3 11 6
6 11 16 15 27 11 14 -5 13 -2 -3 11 -20 17 -20 17 5 11 14 -4 20 -3 15 2 -12
9 -18 56 -7 49 4 -3 8 4 8 14 0 10 -3 17 -7 14 -4 -2 -6 7 -6 21 0 14 4 22 10
18 6 -3 7 -1 3 5 -4 6 -12 9 -20 6 -7 -3 -13 2 -13 11 0 9 6 14 13 11 9 -3 11
1 7 11 -5 12 -3 14 7 8 9 -6 11 -4 6 4 -6 9 -13 8 -27 -5 -10 -9 -19 -12 -19
-6 0 6 11 19 23 29 l24 17 -21 19 -21 18 25 -6 c14 -4 20 -3 15 2 -12 9 -18
56 -7 49 4 -3 8 4 8 14 0 10 -3 17 -7 14 -4 -2 -6 7 -6 19 0 15 6 23 18 24 11
1 18 -1 15 -5 -2 -4 20 -7 50 -8 31 0 49 3 41 8 -8 4 -25 5 -38 3 -13 -3 -33
2 -46 10 -13 9 -23 11 -23 5 0 -5 -6 -9 -12 -7 -9 1 -13 -11 -13 -34 0 -20 -6
-43 -14 -53 -12 -15 -12 -16 5 -10 13 4 9 -3 -11 -21 -16 -14 -23 -23 -14 -20
9 3 22 -2 30 -11 12 -15 12 -16 -9 -10 -14 5 -22 3 -22 -4 0 -6 5 -8 10 -5 14
9 13 -8 -2 -23 -8 -8 -8 -15 2 -27 8 -10 9 -15 1 -15 -6 0 -11 -5 -11 -11 0
-5 4 -8 9 -4 12 7 24 -12 27 -40 2 -27 -24 -55 -44 -48 -12 5 -11 8 6 14 12 5
22 14 22 21 0 10 -2 10 -9 -1 -15 -23 -33 -3 -20 22 7 11 8 22 3 24 -11 3 -9
119 2 147 5 14 4 17 -5 11 -10 -6 -11 -3 -2 13 6 11 11 23 11 27 0 3 -5 3 -11
-1 -8 -5 -8 -1 0 14 14 26 14 35 1 27 -6 -3 -7 1 -4 10 5 11 10 13 19 5 9 -8
14 -6 19 5 3 10 2 13 -5 10 -12 -8 -41 14 -34 25 6 10 333 6 358 -5z m-1173
-255 c0 -5 -5 -10 -11 -10 -5 0 -7 5 -4 10 3 6 8 10 11 10 2 0 4 -4 4 -10z
m1500 -119 c0 -3 -4 -12 -9 -20 -6 -10 -10 -10 -16 -1 -12 19 -32 -19 -29 -53
4 -26 2 -28 -13 -16 -13 11 -15 11 -9 1 4 -7 2 -21 -5 -30 -11 -14 -11 -15 1
-4 22 19 35 14 16 -7 -14 -16 -21 -17 -31 -8 -7 7 -9 17 -5 22 5 6 7 27 6 47
-3 45 3 57 29 55 11 -1 19 3 18 9 -1 6 9 12 22 12 14 0 25 -3 25 -7z m-1500
-121 c0 -5 -5 -10 -11 -10 -5 0 -7 5 -4 10 3 6 8 10 11 10 2 0 4 -4 4 -10z
m1330 -81 c0 -5 -4 -9 -10 -9 -5 0 -10 7 -10 16 0 8 5 12 10 9 6 -3 10 -10 10
-16z m-300 -39 c0 -5 -2 -10 -4 -10 -3 0 -8 5 -11 10 -3 6 -1 10 4 10 6 0 11
-4 11 -10z m-1030 -120 c0 -5 -5 -10 -11 -10 -5 0 -7 5 -4 10 3 6 8 10 11 10
2 0 4 -4 4 -10z m645 -67 c-4 -10 -8 -34 -9 -54 -1 -39 -22 -73 -39 -62 -6 3
-7 1 -3 -5 4 -6 13 -9 21 -5 19 7 19 -1 1 -16 -12 -10 -17 -8 -26 8 -8 17 -5
34 17 86 16 36 32 65 37 65 4 0 5 -8 1 -17z m-632 -9 c3 -4 -1 -20 -9 -36 -8
-16 -12 -33 -9 -38 7 -12 -31 -7 -42 5 -5 4 -3 6 2 3 14 -8 48 39 35 47 -6 4
-8 11 -5 16 7 10 19 12 28 3z m-9 -196 c-8 -16 -12 -33 -9 -38 7 -11 -31 -8
-40 3 -3 4 -2 5 1 2 13 -9 43 39 32 52 -7 9 -4 11 10 10 19 -1 19 -3 6 -29z
m-54 -150 c0 6 5 12 10 12 16 0 12 -17 -6 -24 -20 -8 -36 2 -28 16 4 6 10 5
15 -3 6 -10 9 -11 9 -1z"/>
<path d="M1033 1782 c1 -14 5 -18 11 -12 7 7 6 14 -1 21 -9 9 -12 7 -10 -9z"/>
<path d="M1064 1780 c0 -14 4 -16 17 -9 22 11 32 12 25 1 -3 -5 1 -9 9 -9 21
0 19 10 -5 25 -14 9 -20 9 -20 1 0 -8 -4 -8 -13 -1 -10 8 -13 6 -13 -8z"/>
<path d="M1144 1789 c-3 -6 -1 -16 5 -22 9 -9 10 -7 5 8 -7 18 -6 18 9 6 9 -7
17 -9 17 -3 0 14 -28 23 -36 11z"/>
<path d="M1225 1790 c-4 -7 -2 -17 4 -23 9 -9 11 -8 6 6 -7 18 10 24 18 7 3
-6 4 -5 3 2 -3 16 -23 21 -31 8z"/>
<path d="M990 1770 l-25 -21 28 12 c15 7 27 16 27 21 0 11 -1 10 -30 -12z"/>
<path d="M1190 1770 c0 -5 5 -10 10 -10 6 0 10 5 10 10 0 6 -4 10 -10 10 -5 0
-10 -4 -10 -10z"/>
<path d="M1270 1769 c0 -5 5 -7 10 -4 6 3 10 8 10 11 0 2 -4 4 -10 4 -5 0 -10
-5 -10 -11z"/>
<path d="M1330 1761 c0 -6 4 -13 10 -16 6 -3 7 1 4 9 -7 18 -14 21 -14 7z"/>
<path d="M986 1734 c-8 -21 -8 -24 5 -24 5 0 7 5 4 10 -3 6 -2 10 4 10 5 0 11
-5 13 -12 3 -7 7 -8 11 -2 3 5 -3 15 -13 22 -15 9 -19 8 -24 -4z"/>
<path d="M977 1636 c-3 -8 0 -17 8 -20 9 -3 12 0 9 9 -4 10 0 13 16 10 13 -2
20 -1 16 2 -13 13 -44 12 -49 -1z"/>
<path d="M965 1600 c3 -5 11 -10 16 -10 6 0 7 5 4 10 -3 6 -11 10 -16 10 -6 0
-7 -4 -4 -10z"/>
<path d="M970 1360 c0 -5 5 -10 11 -10 5 0 7 5 4 10 -3 6 -8 10 -11 10 -2 0
-4 -4 -4 -10z"/>
<path d="M970 1120 c0 -5 5 -10 11 -10 5 0 7 5 4 10 -3 6 -8 10 -11 10 -2 0
-4 -4 -4 -10z"/>
<path d="M970 729 c0 -5 5 -7 10 -4 6 3 10 8 10 11 0 2 -4 4 -10 4 -5 0 -10
-5 -10 -11z"/>
<path d="M2010 1790 c0 -5 5 -10 11 -10 5 0 7 5 4 10 -3 6 -8 10 -11 10 -2 0
-4 -4 -4 -10z"/>
<path d="M2045 1788 c4 -11 0 -18 -12 -21 -15 -4 -16 -5 -1 -6 22 -1 33 18 19
32 -9 9 -11 8 -6 -5z"/>
<path d="M2073 1781 c0 -9 9 -17 19 -17 10 0 18 1 18 1 0 0 -9 8 -19 17 -18
16 -20 15 -18 -1z"/>
<path d="M2188 1763 c7 -3 16 -2 19 1 4 3 -2 6 -13 5 -11 0 -14 -3 -6 -6z"/>
<path d="M1839 1753 c0 -5 -2 -18 -3 -30 -1 -12 1 -20 4 -18 8 5 11 55 4 55
-2 0 -4 -3 -5 -7z"/>
<path d="M1835 1510 c-3 -5 -1 -10 4 -10 6 0 11 5 11 10 0 6 -2 10 -4 10 -3 0
-8 -4 -11 -10z"/>
<path d="M1842 1359 c-10 -15 -11 -24 -3 -32 13 -13 52 -17 45 -5 -3 5 -13 7
-21 6 -9 -2 -18 2 -20 8 -2 7 6 10 22 9 14 -2 23 1 20 5 -3 5 -13 6 -23 3 -15
-6 -15 -5 -3 10 7 9 9 17 5 17 -5 0 -15 -10 -22 -21z"/>
<path d="M2420 1379 c0 -5 5 -7 10 -4 6 3 10 8 10 11 0 2 -4 4 -10 4 -5 0 -10
-5 -10 -11z"/>
<path d="M1615 960 c-3 -5 -1 -10 4 -10 6 0 11 5 11 10 0 6 -2 10 -4 10 -3 0
-8 -4 -11 -10z"/>
<path d="M1603 925 c0 -7 6 -11 14 -8 7 3 13 6 13 8 0 2 -6 5 -13 8 -8 3 -14
-1 -14 -8z"/>
<path d="M759 1791 c7 -5 11 -14 7 -20 -5 -7 -1 -9 9 -5 12 5 13 9 4 20 -6 8
-17 14 -23 14 -6 0 -5 -4 3 -9z"/>
<path d="M726 1756 c-19 -30 -2 -48 20 -22 8 9 9 11 2 6 -22 -18 -29 -10 -12
15 9 14 14 25 11 25 -2 0 -12 -11 -21 -24z"/>
<path d="M155 1750 c-3 -5 -1 -10 4 -10 6 0 11 5 11 10 0 6 -2 10 -4 10 -3 0
-8 -4 -11 -10z"/>
<path d="M686 1713 c-3 -10 -7 -22 -8 -28 -4 -18 -31 -44 -40 -39 -4 3 -8 3
-8 0 0 -3 9 -10 20 -16 16 -9 19 -8 13 6 -4 12 -3 15 6 10 6 -4 10 -3 9 1 -2
5 11 21 27 36 17 14 25 27 19 27 -7 0 -14 -7 -18 -15 -3 -8 -10 -15 -16 -15
-7 0 -7 6 0 21 7 11 9 23 7 26 -3 2 -8 -4 -11 -14z"/>
<path d="M2450 1645 c0 -8 2 -15 4 -15 2 0 6 7 10 15 3 8 1 15 -4 15 -6 0 -10
-7 -10 -15z"/>
<path d="M167 1629 c7 -7 15 -10 18 -7 3 3 -2 9 -12 12 -14 6 -15 5 -6 -5z"/>
<path d="M617 1623 c-4 -3 -7 -11 -7 -17 0 -6 5 -5 12 2 6 6 9 14 7 17 -3 3
-9 2 -12 -2z"/>
<path d="M2459 1613 c-13 -17 -13 -17 6 -3 11 8 22 16 24 17 2 2 0 3 -6 3 -6
0 -17 -8 -24 -17z"/>
<path d="M2473 1598 c-4 -7 -8 -26 -9 -42 -1 -19 1 -24 7 -15 4 7 12 10 16 5
4 -4 -2 -16 -14 -26 l-22 -17 33 1 c18 0 33 6 33 13 0 6 -7 8 -16 5 -13 -5
-14 -3 -4 9 10 12 8 17 -8 27 -10 7 -19 17 -19 23 0 8 5 7 15 -1 9 -7 18 -10
22 -7 3 4 -2 9 -11 13 -9 3 -13 10 -10 15 3 5 3 9 0 9 -3 0 -8 -6 -13 -12z"/>
<path d="M591 1593 c-2 -21 20 -26 37 -8 16 16 16 17 -5 6 -16 -8 -23 -8 -26
2 -4 9 -6 9 -6 0z"/>
<path d="M572 1558 c2 -6 10 -13 16 -14 7 -1 8 0 2 3 -5 2 -8 9 -4 14 3 5 0 9
-6 9 -7 0 -10 -5 -8 -12z"/>
<path d="M555 1530 c27 -12 43 -12 25 0 -8 5 -22 9 -30 9 -10 0 -8 -3 5 -9z"/>
<path d="M527 1513 c-3 -5 6 -9 20 -10 19 -1 22 1 12 8 -17 11 -26 11 -32 2z"/>
<path d="M1655 1509 c-4 -6 -5 -12 -2 -15 2 -3 7 2 10 11 7 17 1 20 -8 4z"/>
<path d="M1667 1486 c-3 -8 1 -20 9 -26 10 -9 14 -9 14 -1 0 6 -4 11 -10 11
-5 0 -7 7 -4 15 4 8 4 15 1 15 -3 0 -7 -6 -10 -14z"/>
<path d="M499 1479 c-6 -4 1 -6 15 -6 15 0 29 3 31 8 6 9 -31 8 -46 -2z"/>
<path d="M491 1438 c5 -10 13 -18 16 -18 3 0 3 3 0 7 -4 3 -3 11 3 17 6 8 3
12 -10 12 -15 0 -16 -4 -9 -18z"/>
<path d="M1675 1430 c-3 -5 -1 -10 4 -10 6 0 11 5 11 10 0 6 -2 10 -4 10 -3 0
-8 -4 -11 -10z"/>
<path d="M445 1410 c-21 -23 -11 -27 12 -5 8 9 18 13 21 10 4 -3 0 -11 -8 -16
-13 -9 -13 -10 0 -6 17 4 20 29 4 34 -6 2 -19 -6 -29 -17z"/>
<path d="M2480 1380 c-8 -5 -12 -12 -9 -15 4 -3 12 1 19 10 14 17 11 19 -10 5z"/>
<path d="M415 1371 c3 -5 -5 -17 -17 -25 -12 -9 -18 -16 -12 -16 5 0 15 5 22
12 7 7 12 8 12 2 0 -17 -22 -33 -36 -27 -8 3 -14 3 -14 0 0 -3 7 -7 15 -10 9
-4 26 10 47 36 18 23 25 36 15 28 -11 -9 -17 -10 -17 -2 0 6 -5 11 -11 11 -5
0 -8 -4 -4 -9z"/>
<path d="M356 1299 c6 -8 13 -21 16 -28 4 -13 5 -13 10 0 4 9 -2 21 -15 29
-19 11 -20 11 -11 -1z"/>
<path d="M344 1282 c3 -5 0 -13 -6 -15 -9 -4 -10 -6 -1 -6 17 -1 25 16 12 25
-7 4 -9 3 -5 -4z"/>
<path d="M300 1244 c0 -20 24 -34 40 -22 12 8 12 9 -2 4 -10 -3 -22 2 -27 12
-6 9 -11 12 -11 6z"/>
<path d="M2270 1244 c0 -5 7 -18 15 -28 8 -11 15 -16 15 -10 0 5 -7 18 -15 28
-8 11 -15 16 -15 10z"/>
<path d="M2235 1230 c-3 -6 1 -7 9 -4 18 7 21 14 7 14 -6 0 -13 -4 -16 -10z"/>
<path d="M1923 1216 c-13 -6 -25 -16 -28 -23 -3 -8 5 -7 22 4 26 17 27 17 20
0 -3 -9 -2 -17 3 -17 5 0 9 11 8 25 -1 14 -3 24 -3 24 0 -1 -10 -6 -22 -13z"/>
<path d="M2204 1215 c-4 -8 -10 -13 -14 -10 -5 3 -12 0 -16 -6 -4 -7 -3 -9 4
-5 6 3 14 2 17 -4 5 -8 11 -7 21 1 8 6 14 8 14 3 0 -4 5 -3 12 4 15 15 31 16
22 0 -5 -7 -3 -8 5 -3 9 5 9 11 3 17 -6 6 -16 7 -24 2 -22 -14 -40 -13 -34 2
3 8 3 14 0 14 -2 0 -7 -7 -10 -15z"/>
<path d="M1835 1190 c-3 -5 -1 -10 4 -10 6 0 11 5 11 10 0 6 -2 10 -4 10 -3 0
-8 -4 -11 -10z"/>
<path d="M184 1162 c4 -7 2 -12 -5 -12 -9 0 -9 -3 1 -14 6 -8 19 -12 27 -9 10
4 14 2 10 -4 -4 -6 0 -13 8 -16 12 -5 12 -2 3 18 -9 21 -14 23 -26 12 -13 -10
-15 -9 -9 5 3 10 1 20 -5 24 -7 4 -8 3 -4 -4z"/>
<path d="M1675 1151 c-3 -5 -2 -12 3 -15 5 -3 9 1 9 9 0 17 -3 19 -12 6z"/>
<path d="M1675 1110 c-3 -5 -1 -10 4 -10 6 0 11 5 11 10 0 6 -2 10 -4 10 -3 0
-8 -4 -11 -10z"/>
<path d="M1669 1071 c5 -9 6 -21 4 -28 -2 -6 0 -14 4 -16 5 -3 9 9 10 27 0 21
-4 33 -13 33 -9 0 -10 -6 -5 -16z"/>
<path d="M193 1010 c1 -10 7 -22 13 -24 7 -3 10 3 7 15 -7 27 -22 34 -20 9z"/>
<path d="M1866 982 c-2 -4 -3 -21 -1 -37 2 -18 -4 -38 -13 -48 -15 -17 -14
-17 4 -12 13 5 10 -1 -11 -20 -16 -14 -23 -23 -14 -20 9 3 22 -2 30 -11 12
-15 12 -16 -9 -10 -14 5 -22 3 -22 -4 0 -6 5 -8 10 -5 14 9 13 -8 -2 -23 -8
-8 -8 -15 2 -27 8 -10 9 -15 1 -15 -6 0 -11 -5 -11 -11 0 -5 4 -8 9 -4 21 12
37 -50 19 -72 -6 -7 -14 -10 -19 -7 -5 3 -9 0 -9 -6 0 -7 8 -9 22 -4 20 6 21
5 9 -9 -7 -9 -17 -15 -21 -12 -4 3 -10 -1 -13 -8 -3 -7 3 -13 13 -13 10 0 16
4 13 9 -3 5 5 6 18 2 13 -3 19 -3 14 2 -12 9 -18 56 -7 49 4 -3 8 4 8 14 0 10
-3 17 -7 14 -4 -2 -6 7 -6 21 0 14 4 22 10 18 6 -3 7 -1 3 5 -4 6 -12 9 -20 6
-7 -3 -13 2 -13 11 0 9 6 14 13 11 9 -3 11 1 7 11 -5 12 -3 14 7 8 9 -6 11 -4
6 4 -6 9 -13 8 -27 -5 -10 -9 -19 -12 -19 -6 0 6 11 19 23 29 l24 17 -21 19
-21 18 25 -6 c14 -4 20 -3 15 2 -12 9 -18 56 -7 49 4 -3 8 4 8 14 0 10 -3 17
-7 14 -4 -2 -6 7 -6 21 0 14 4 22 10 18 6 -3 7 -1 3 5 -8 14 -13 15 -20 4z"/>
<path d="M1839 953 c0 -5 -2 -18 -3 -30 -1 -12 1 -20 4 -18 8 5 11 55 4 55 -2
0 -4 -3 -5 -7z"/>
<path d="M166 941 c-4 -6 -1 -11 6 -11 8 -1 5 -7 -7 -16 -19 -14 -19 -15 4
-12 13 2 26 -3 28 -10 3 -7 -1 -10 -10 -7 -7 3 -20 -2 -28 -11 -13 -16 -12
-17 6 -7 13 7 26 8 37 2 14 -8 16 -6 11 8 -15 39 -41 74 -47 64z"/>
<path d="M1545 853 c-10 -21 -12 -29 -14 -44 0 -5 -5 -8 -10 -5 -5 3 -12 -1
-15 -9 -4 -12 -2 -13 13 -5 14 7 25 5 44 -10 20 -16 27 -17 35 -7 8 9 8 17 0
27 -8 12 -9 12 -4 -2 7 -22 -6 -30 -21 -12 -8 7 -9 15 -4 19 13 7 8 58 -5 62
-7 2 -15 -4 -19 -14z m22 -20 c-1 -14 -8 -28 -15 -31 -13 -4 -12 24 1 46 12
19 16 15 14 -15z"/>
<path d="M1610 839 c0 -5 -4 -7 -10 -4 -5 3 -10 2 -10 -3 0 -6 11 -9 24 -8 18
1 22 4 14 14 -13 15 -18 15 -18 1z"/>
<path d="M175 794 c20 -15 35 -15 38 1 1 5 -11 11 -28 12 -28 2 -29 1 -10 -13z"/>
<path d="M159 777 c13 -16 13 -20 0 -28 -10 -7 -8 -8 10 -7 13 2 26 -3 28 -10
3 -7 -1 -10 -10 -6 -8 3 -18 0 -22 -7 -5 -7 -3 -10 6 -7 8 3 21 1 31 -3 33
-18 4 41 -37 71 -19 14 -19 14 -6 -3z"/>
<path d="M1523 772 c-8 -5 -6 -14 8 -32 11 -14 18 -18 17 -10 -2 8 3 14 10 12
10 -2 10 2 2 18 -12 22 -18 24 -37 12z m27 -12 c0 -5 -4 -10 -10 -10 -5 0 -10
5 -10 10 0 6 5 10 10 10 6 0 10 -4 10 -10z"/>
<path d="M1487 750 c-3 -11 -9 -19 -14 -18 -4 1 -19 -9 -34 -22 -36 -35 -72
-90 -60 -90 6 0 11 4 11 8 0 5 6 17 14 27 12 17 16 18 32 5 18 -14 18 -14 2 6
-16 19 -16 20 2 32 17 11 19 9 17 -9 -1 -12 4 -23 11 -25 7 -1 8 0 2 3 -15 7
-12 26 4 20 9 -4 13 3 12 21 -1 14 4 27 10 29 7 2 10 -6 9 -21 -2 -18 1 -23
11 -19 8 3 14 9 14 15 0 5 -5 6 -12 2 -7 -5 -9 -2 -6 7 3 8 0 23 -7 32 -12 16
-13 16 -18 -3z m-7 -41 c0 -6 -4 -7 -10 -4 -5 3 -10 11 -10 16 0 6 5 7 10 4 6
-3 10 -11 10 -16z"/>
<path d="M1835 710 c-3 -5 -1 -10 4 -10 6 0 11 5 11 10 0 6 -2 10 -4 10 -3 0
-8 -4 -11 -10z"/>
<path d="M191 681 c13 -11 21 -22 18 -26 -11 -10 -63 -12 -84 -3 -16 7 -15 5
4 -10 13 -11 21 -23 18 -28 -3 -6 2 -10 12 -10 10 0 18 7 17 16 -1 9 7 15 20
14 17 0 21 5 19 24 -2 23 -20 42 -39 42 -4 0 2 -9 15 -19z"/>
<path d="M1826 678 c3 -4 9 -8 15 -8 5 0 9 4 9 8 0 5 -7 9 -15 9 -8 0 -12 -4
-9 -9z"/>
<path d="M1371 663 c-5 -10 -12 -17 -15 -15 -15 6 -24 0 -35 -25 l-11 -28 21
28 c11 15 25 25 29 22 5 -3 14 4 20 15 13 24 5 27 -9 3z"/>
<path d="M700 650 c-8 -5 -11 -13 -6 -17 5 -4 11 -2 13 5 4 10 8 10 19 1 8 -7
17 -9 20 -6 11 10 -32 26 -46 17z"/>
<path d="M754 636 c1 -17 -4 -20 -23 -18 -14 1 -22 -1 -18 -4 3 -4 17 -8 30
-9 17 -2 23 3 24 17 3 30 10 32 40 13 27 -17 27 -17 11 0 -9 10 -27 19 -40 20
-19 2 -24 -2 -24 -19z"/>
<path d="M1784 638 c1 -27 21 -35 30 -12 6 15 4 15 -11 3 -15 -12 -16 -12 -10
3 3 10 2 20 -2 22 -5 3 -8 -4 -7 -16z"/>
<path d="M1114 639 c-5 -8 -3 -9 6 -4 8 5 11 3 8 -6 -3 -8 -12 -13 -21 -11 -8
1 -18 -1 -21 -6 -7 -11 24 -9 47 4 16 9 16 12 4 23 -12 9 -17 9 -23 0z"/>
<path d="M1410 639 c0 -5 5 -7 10 -4 6 3 10 8 10 11 0 2 -4 4 -10 4 -5 0 -10
-5 -10 -11z"/>
<path d="M2460 639 c0 -5 5 -7 10 -4 6 3 10 8 10 11 0 2 -4 4 -10 4 -5 0 -10
-5 -10 -11z"/>
<path d="M1070 630 c-8 -5 -12 -11 -10 -14 3 -2 14 2 24 10 22 15 10 19 -14 4z"/>
<path d="M1166 632 c-2 -4 7 -8 20 -8 13 -1 24 1 24 5 0 9 -38 12 -44 3z"/>
<path d="M1224 629 c-3 -6 -2 -15 4 -21 12 -12 32 -2 31 15 0 9 -2 9 -6 0 -2
-7 -9 -13 -15 -13 -6 0 -8 7 -4 15 6 17 0 20 -10 4z"/>
<path d="M1270 629 c0 -6 5 -7 10 -4 6 3 10 1 10 -5 0 -6 5 -8 10 -5 16 10 11
21 -10 22 -11 1 -20 -3 -20 -8z"/>
<path d="M113 615 c0 -8 4 -12 9 -9 4 3 8 9 8 15 0 5 -4 9 -8 9 -5 0 -9 -7 -9
-15z"/>
<path d="M190 621 c0 -5 5 -13 10 -16 6 -3 10 -2 10 4 0 5 -4 13 -10 16 -5 3
-10 2 -10 -4z"/>
<path d="M780 621 c0 -8 41 -23 47 -17 2 1 -8 8 -22 14 -14 6 -25 8 -25 3z"/>
<path d="M2558 618 c-5 -11 -2 -15 10 -14 9 2 18 9 20 17 3 12 2 12 -6 0 -8
-11 -10 -11 -14 0 -3 10 -6 9 -10 -3z"/>
<path d="M1020 610 c-12 -7 -10 -9 8 -7 12 0 22 5 22 9 0 11 -12 10 -30 -2z"/>
</g>
</svg>
